<svg xmlns="http://www.w3.org/2000/svg" shape-rendering="geometricPrecision" text-rendering="geometricPrecision" image-rendering="optimizeQuality" fill-rule="evenodd" clip-rule="evenodd" viewBox="0 0 512 265.788"><path fill="#427D2A" d="M0 0h512v265.789H0z"/><path fill="#87CC71" d="M427.35 41.011c-.271 19.77 17.153 37.654 37.661 37.9v105.161c-21.602-.271-39.482 17.153-39.728 40.706H84.65c.271-21.603-17.157-39.487-37.662-39.733V79.884c21.685.246 39.58-17.167 39.826-38.873H427.35z"/><path fill="#427D2A" d="M184.56 94.866c21.004-39.459 70.01-54.415 109.468-33.412 39.458 21 54.415 70.01 33.411 109.469-21 39.457-70.009 54.414-109.467 33.411-39.459-21.004-54.415-70.01-33.412-109.468z"/><path fill="#FEFEFE" d="M227.768 87.669h56.52c.484 0 .881.406.881.905l-.001 8.613a.895.895 0 01-.881.903h-17.652c2.783 3.237 4.771 7.137 5.673 11.422h11.98c.484 0 .88.404.88.903v8.614c0 .497-.396.905-.88.905h-11.98c-1.081 5.131-3.724 9.715-7.421 13.263-4.843 4.647-11.51 7.529-18.838 7.529v.03h-.815l31.703 36.151c.857.978-.644 3.153-1.317 3.156l-14.657.083-33.844-38.593a1.18 1.18 0 01-.23-1.142v-14.134h19.16v.028c3.445 0 6.568-1.346 8.829-3.512a11.857 11.857 0 002.197-2.859h-29.307c-.484 0-.879-.408-.879-.905v-8.614c0-.499.396-.903.879-.903l29.307-.001a11.781 11.781 0 00-2.197-2.858c-2.261-2.169-5.384-3.514-8.829-3.514v.027l-19.16.001V88.574c0-.499.395-.905.878-.905h.001z"/></svg>